<mxfile host="drawio-plugin" modified="2022-04-08T11:52:54.645Z" agent="5.0 (Windows NT 6.2; Win64; x64) AppleWebKit/537.36 (KHTML, like Gecko) Chrome/89.0.4389.114 Safari/537.36" etag="DaJo7qhgd1PoPHsoT6ch" version="15.5.4" type="embed"><diagram id="23iRSUPoRavnBvh4doch" name="Page-1"><mxGraphModel dx="921" dy="782" grid="0" gridSize="10" guides="1" tooltips="1" connect="1" arrows="1" fold="1" page="1" pageScale="1" pageWidth="827" pageHeight="1169" math="0" shadow="0"><root><mxCell id="0"/><mxCell id="1" parent="0"/><mxCell id="2" value="Controller" style="swimlane;fontStyle=1;align=center;verticalAlign=top;childLayout=stackLayout;horizontal=1;startSize=26;horizontalStack=0;resizeParent=1;resizeParentMax=0;resizeLast=0;collapsible=1;marginBottom=0;sketch=0;fontColor=#EEEEEE;strokeColor=#BAC8D3;fillColor=#09555B;" parent="1" vertex="1"><mxGeometry x="529" y="62" width="272" height="164" as="geometry"/></mxCell><mxCell id="3" value="- mars: Plateau" style="text;strokeColor=none;fillColor=none;align=left;verticalAlign=top;spacingLeft=4;spacingRight=4;overflow=hidden;rotatable=0;points=[[0,0.5],[1,0.5]];portConstraint=eastwest;sketch=0;fontColor=#EEEEEE;" parent="2" vertex="1"><mxGeometry y="26" width="272" height="26" as="geometry"/></mxCell><mxCell id="62" value="- currentRover: Rover" style="text;strokeColor=none;fillColor=none;align=left;verticalAlign=top;spacingLeft=4;spacingRight=4;overflow=hidden;rotatable=0;points=[[0,0.5],[1,0.5]];portConstraint=eastwest;sketch=0;fontColor=#EEEEEE;" parent="2" vertex="1"><mxGeometry y="52" width="272" height="26" as="geometry"/></mxCell><mxCell id="4" value="" style="line;strokeWidth=1;fillColor=none;align=left;verticalAlign=middle;spacingTop=-1;spacingLeft=3;spacingRight=3;rotatable=0;labelPosition=right;points=[];portConstraint=eastwest;sketch=0;fontColor=#EEEEEE;" parent="2" vertex="1"><mxGeometry y="78" width="272" height="8" as="geometry"/></mxCell><mxCell id="55" value="+ createPlateau(String line): void" style="text;strokeColor=none;fillColor=none;align=left;verticalAlign=top;spacingLeft=4;spacingRight=4;overflow=hidden;rotatable=0;points=[[0,0.5],[1,0.5]];portConstraint=eastwest;sketch=0;fontColor=#EEEEEE;" parent="2" vertex="1"><mxGeometry y="86" width="272" height="26" as="geometry"/></mxCell><mxCell id="57" value="+ setRover(String commands): void" style="text;strokeColor=none;fillColor=none;align=left;verticalAlign=top;spacingLeft=4;spacingRight=4;overflow=hidden;rotatable=0;points=[[0,0.5],[1,0.5]];portConstraint=eastwest;sketch=0;fontColor=#EEEEEE;" parent="2" vertex="1"><mxGeometry y="112" width="272" height="26" as="geometry"/></mxCell><mxCell id="7" value="+ command(String commands): void" style="text;strokeColor=none;fillColor=none;align=left;verticalAlign=top;spacingLeft=4;spacingRight=4;overflow=hidden;rotatable=0;points=[[0,0.5],[1,0.5]];portConstraint=eastwest;sketch=0;fontColor=#EEEEEE;" parent="2" vertex="1"><mxGeometry y="138" width="272" height="26" as="geometry"/></mxCell><mxCell id="8" value="&lt;enum&gt;&#10;Direction" style="swimlane;fontStyle=1;align=center;verticalAlign=top;childLayout=stackLayout;horizontal=1;startSize=37;horizontalStack=0;resizeParent=1;resizeParentMax=0;resizeLast=0;collapsible=1;marginBottom=0;sketch=0;fontColor=#EEEEEE;strokeColor=#BAC8D3;fillColor=#09555B;" parent="1" vertex="1"><mxGeometry x="40" y="428" width="160" height="175" as="geometry"/></mxCell><mxCell id="9" value="+ N: Delta" style="text;strokeColor=none;fillColor=none;align=left;verticalAlign=top;spacingLeft=4;spacingRight=4;overflow=hidden;rotatable=0;points=[[0,0.5],[1,0.5]];portConstraint=eastwest;sketch=0;fontColor=#EEEEEE;" parent="8" vertex="1"><mxGeometry y="37" width="160" height="26" as="geometry"/></mxCell><mxCell id="14" value="+ S: Delta" style="text;strokeColor=none;fillColor=none;align=left;verticalAlign=top;spacingLeft=4;spacingRight=4;overflow=hidden;rotatable=0;points=[[0,0.5],[1,0.5]];portConstraint=eastwest;sketch=0;fontColor=#EEEEEE;" parent="8" vertex="1"><mxGeometry y="63" width="160" height="26" as="geometry"/></mxCell><mxCell id="13" value="+ E: Delta" style="text;strokeColor=none;fillColor=none;align=left;verticalAlign=top;spacingLeft=4;spacingRight=4;overflow=hidden;rotatable=0;points=[[0,0.5],[1,0.5]];portConstraint=eastwest;sketch=0;fontColor=#EEEEEE;" parent="8" vertex="1"><mxGeometry y="89" width="160" height="26" as="geometry"/></mxCell><mxCell id="15" value="+ W: Delta" style="text;strokeColor=none;fillColor=none;align=left;verticalAlign=top;spacingLeft=4;spacingRight=4;overflow=hidden;rotatable=0;points=[[0,0.5],[1,0.5]];portConstraint=eastwest;sketch=0;fontColor=#EEEEEE;" parent="8" vertex="1"><mxGeometry y="115" width="160" height="26" as="geometry"/></mxCell><mxCell id="10" value="" style="line;strokeWidth=1;fillColor=none;align=left;verticalAlign=middle;spacingTop=-1;spacingLeft=3;spacingRight=3;rotatable=0;labelPosition=right;points=[];portConstraint=eastwest;sketch=0;fontColor=#EEEEEE;" parent="8" vertex="1"><mxGeometry y="141" width="160" height="8" as="geometry"/></mxCell><mxCell id="71" value="+ getDelta(): Delta " style="text;strokeColor=none;fillColor=none;align=left;verticalAlign=top;spacingLeft=4;spacingRight=4;overflow=hidden;rotatable=0;points=[[0,0.5],[1,0.5]];portConstraint=eastwest;" vertex="1" parent="8"><mxGeometry y="149" width="160" height="26" as="geometry"/></mxCell><mxCell id="16" value="Plateau" style="swimlane;fontStyle=1;align=center;verticalAlign=top;childLayout=stackLayout;horizontal=1;startSize=26;horizontalStack=0;resizeParent=1;resizeParentMax=0;resizeLast=0;collapsible=1;marginBottom=0;sketch=0;fontColor=#EEEEEE;strokeColor=#BAC8D3;fillColor=#09555B;" parent="1" vertex="1"><mxGeometry x="478" y="315" width="251" height="190" as="geometry"/></mxCell><mxCell id="17" value="- width: int" style="text;strokeColor=none;fillColor=none;align=left;verticalAlign=top;spacingLeft=4;spacingRight=4;overflow=hidden;rotatable=0;points=[[0,0.5],[1,0.5]];portConstraint=eastwest;sketch=0;fontColor=#EEEEEE;" parent="16" vertex="1"><mxGeometry y="26" width="251" height="26" as="geometry"/></mxCell><mxCell id="20" value="- height: int" style="text;strokeColor=none;fillColor=none;align=left;verticalAlign=top;spacingLeft=4;spacingRight=4;overflow=hidden;rotatable=0;points=[[0,0.5],[1,0.5]];portConstraint=eastwest;sketch=0;fontColor=#EEEEEE;" parent="16" vertex="1"><mxGeometry y="52" width="251" height="26" as="geometry"/></mxCell><mxCell id="27" value="- roverMap: Map&lt;Location, Rover&gt;" style="text;strokeColor=none;fillColor=none;align=left;verticalAlign=top;spacingLeft=4;spacingRight=4;overflow=hidden;rotatable=0;points=[[0,0.5],[1,0.5]];portConstraint=eastwest;sketch=0;fontColor=#EEEEEE;" parent="16" vertex="1"><mxGeometry y="78" width="251" height="26" as="geometry"/></mxCell><mxCell id="18" value="" style="line;strokeWidth=1;fillColor=none;align=left;verticalAlign=middle;spacingTop=-1;spacingLeft=3;spacingRight=3;rotatable=0;labelPosition=right;points=[];portConstraint=eastwest;sketch=0;fontColor=#EEEEEE;" parent="16" vertex="1"><mxGeometry y="104" width="251" height="8" as="geometry"/></mxCell><mxCell id="6" value="+ getRover(String line): Rover" style="text;strokeColor=none;fillColor=none;align=left;verticalAlign=top;spacingLeft=4;spacingRight=4;overflow=hidden;rotatable=0;points=[[0,0.5],[1,0.5]];portConstraint=eastwest;sketch=0;fontColor=#EEEEEE;" parent="16" vertex="1"><mxGeometry y="112" width="251" height="26" as="geometry"/></mxCell><mxCell id="19" value="+ find(Rover rover): Location" style="text;strokeColor=none;fillColor=none;align=left;verticalAlign=top;spacingLeft=4;spacingRight=4;overflow=hidden;rotatable=0;points=[[0,0.5],[1,0.5]];portConstraint=eastwest;sketch=0;fontColor=#EEEEEE;" parent="16" vertex="1"><mxGeometry y="138" width="251" height="26" as="geometry"/></mxCell><mxCell id="73" value="+ getRover(String line): Rover" style="text;strokeColor=none;fillColor=none;align=left;verticalAlign=top;spacingLeft=4;spacingRight=4;overflow=hidden;rotatable=0;points=[[0,0.5],[1,0.5]];portConstraint=eastwest;sketch=0;fontColor=#EEEEEE;" vertex="1" parent="16"><mxGeometry y="164" width="251" height="26" as="geometry"/></mxCell><mxCell id="21" value="name" style="endArrow=block;endFill=1;html=1;edgeStyle=orthogonalEdgeStyle;align=left;verticalAlign=top;rounded=1;sketch=0;strokeColor=#0B4D6A;curved=0;entryX=0;entryY=0.5;entryDx=0;entryDy=0;exitX=0;exitY=0;exitDx=0;exitDy=0;" parent="1" source="16" target="3" edge="1"><mxGeometry x="-1" relative="1" as="geometry"><mxPoint x="669" y="321" as="sourcePoint"/><mxPoint x="493" y="400" as="targetPoint"/></mxGeometry></mxCell><mxCell id="22" value="1" style="edgeLabel;resizable=0;html=1;align=left;verticalAlign=bottom;sketch=0;fontColor=#EEEEEE;strokeColor=#BAC8D3;fillColor=#09555B;" parent="21" connectable="0" vertex="1"><mxGeometry x="-1" relative="1" as="geometry"/></mxCell><mxCell id="23" value="Rover" style="swimlane;fontStyle=1;align=center;verticalAlign=top;childLayout=stackLayout;horizontal=1;startSize=26;horizontalStack=0;resizeParent=1;resizeParentMax=0;resizeLast=0;collapsible=1;marginBottom=0;sketch=0;fontColor=#EEEEEE;strokeColor=#BAC8D3;fillColor=#09555B;" parent="1" vertex="1"><mxGeometry x="262" y="533" width="274" height="216" as="geometry"/></mxCell><mxCell id="24" value="- facing: Delta" style="text;strokeColor=none;fillColor=none;align=left;verticalAlign=top;spacingLeft=4;spacingRight=4;overflow=hidden;rotatable=0;points=[[0,0.5],[1,0.5]];portConstraint=eastwest;sketch=0;fontColor=#EEEEEE;" parent="23" vertex="1"><mxGeometry y="26" width="274" height="26" as="geometry"/></mxCell><mxCell id="63" value="- world: Plateau" style="text;strokeColor=none;fillColor=none;align=left;verticalAlign=top;spacingLeft=4;spacingRight=4;overflow=hidden;rotatable=0;points=[[0,0.5],[1,0.5]];portConstraint=eastwest;sketch=0;fontColor=#EEEEEE;" parent="23" vertex="1"><mxGeometry y="52" width="274" height="26" as="geometry"/></mxCell><mxCell id="25" value="" style="line;strokeWidth=1;fillColor=none;align=left;verticalAlign=middle;spacingTop=-1;spacingLeft=3;spacingRight=3;rotatable=0;labelPosition=right;points=[];portConstraint=eastwest;sketch=0;fontColor=#EEEEEE;" parent="23" vertex="1"><mxGeometry y="78" width="274" height="8" as="geometry"/></mxCell><mxCell id="58" value="+ new(Platea plateau, Direction direction): Rover" style="text;strokeColor=none;fillColor=none;align=left;verticalAlign=top;spacingLeft=4;spacingRight=4;overflow=hidden;rotatable=0;points=[[0,0.5],[1,0.5]];portConstraint=eastwest;sketch=0;fontColor=#EEEEEE;" parent="23" vertex="1"><mxGeometry y="86" width="274" height="26" as="geometry"/></mxCell><mxCell id="61" value="+ command(String commands): void" style="text;strokeColor=none;fillColor=none;align=left;verticalAlign=top;spacingLeft=4;spacingRight=4;overflow=hidden;rotatable=0;points=[[0,0.5],[1,0.5]];portConstraint=eastwest;sketch=0;fontColor=#EEEEEE;" parent="23" vertex="1"><mxGeometry y="112" width="274" height="26" as="geometry"/></mxCell><mxCell id="59" value="- action(int code): void" style="text;strokeColor=none;fillColor=none;align=left;verticalAlign=top;spacingLeft=4;spacingRight=4;overflow=hidden;rotatable=0;points=[[0,0.5],[1,0.5]];portConstraint=eastwest;sketch=0;fontColor=#EEEEEE;" parent="23" vertex="1"><mxGeometry y="138" width="274" height="26" as="geometry"/></mxCell><mxCell id="31" value="+ toString(): String" style="text;strokeColor=none;fillColor=none;align=left;verticalAlign=top;spacingLeft=4;spacingRight=4;overflow=hidden;rotatable=0;points=[[0,0.5],[1,0.5]];portConstraint=eastwest;sketch=0;fontColor=#EEEEEE;" parent="23" vertex="1"><mxGeometry y="164" width="274" height="26" as="geometry"/></mxCell><mxCell id="32" value="+ getDirection(): Direction" style="text;strokeColor=none;fillColor=none;align=left;verticalAlign=top;spacingLeft=4;spacingRight=4;overflow=hidden;rotatable=0;points=[[0,0.5],[1,0.5]];portConstraint=eastwest;sketch=0;fontColor=#EEEEEE;" parent="23" vertex="1"><mxGeometry y="190" width="274" height="26" as="geometry"/></mxCell><mxCell id="34" value="1" style="endArrow=open;html=1;endSize=12;startArrow=diamondThin;startSize=14;startFill=0;edgeStyle=orthogonalEdgeStyle;align=left;verticalAlign=bottom;rounded=1;sketch=0;strokeColor=#0B4D6A;curved=0;exitX=0.45;exitY=0.005;exitDx=0;exitDy=0;exitPerimeter=0;entryX=0;entryY=0.5;entryDx=0;entryDy=0;" parent="1" source="23" target="27" edge="1"><mxGeometry x="-0.9285" y="-8" relative="1" as="geometry"><mxPoint x="256" y="345" as="sourcePoint"/><mxPoint x="416" y="345" as="targetPoint"/><mxPoint as="offset"/></mxGeometry></mxCell><mxCell id="35" value="Location" style="swimlane;fontStyle=1;align=center;verticalAlign=top;childLayout=stackLayout;horizontal=1;startSize=26;horizontalStack=0;resizeParent=1;resizeParentMax=0;resizeLast=0;collapsible=1;marginBottom=0;sketch=0;fontColor=#EEEEEE;strokeColor=#BAC8D3;fillColor=#09555B;" parent="1" vertex="1"><mxGeometry x="255" y="315" width="160" height="60" as="geometry"/></mxCell><mxCell id="37" value="" style="line;strokeWidth=1;fillColor=none;align=left;verticalAlign=middle;spacingTop=-1;spacingLeft=3;spacingRight=3;rotatable=0;labelPosition=right;points=[];portConstraint=eastwest;sketch=0;fontColor=#EEEEEE;" parent="35" vertex="1"><mxGeometry y="26" width="160" height="8" as="geometry"/></mxCell><mxCell id="72" value="+ add(Delta): void" style="text;strokeColor=none;fillColor=none;align=left;verticalAlign=top;spacingLeft=4;spacingRight=4;overflow=hidden;rotatable=0;points=[[0,0.5],[1,0.5]];portConstraint=eastwest;sketch=0;fontColor=#EEEEEE;" vertex="1" parent="35"><mxGeometry y="34" width="160" height="26" as="geometry"/></mxCell><mxCell id="39" value="1" style="endArrow=open;html=1;endSize=12;startArrow=diamondThin;startSize=14;startFill=0;edgeStyle=orthogonalEdgeStyle;align=left;verticalAlign=bottom;rounded=1;sketch=0;strokeColor=#0B4D6A;curved=0;exitX=0.5;exitY=1;exitDx=0;exitDy=0;" parent="1" source="35" target="27" edge="1"><mxGeometry x="-0.8674" y="12" relative="1" as="geometry"><mxPoint x="244" y="447.95000000000005" as="sourcePoint"/><mxPoint x="498" y="389" as="targetPoint"/><mxPoint as="offset"/></mxGeometry></mxCell><mxCell id="40" value="IntVector2D" style="swimlane;fontStyle=1;align=center;verticalAlign=top;childLayout=stackLayout;horizontal=1;startSize=26;horizontalStack=0;resizeParent=1;resizeParentMax=0;resizeLast=0;collapsible=1;marginBottom=0;sketch=0;fontColor=#EEEEEE;strokeColor=#BAC8D3;fillColor=#09555B;" parent="1" vertex="1"><mxGeometry x="104" y="28" width="271" height="216" as="geometry"/></mxCell><mxCell id="41" value="- x: int" style="text;strokeColor=none;fillColor=none;align=left;verticalAlign=top;spacingLeft=4;spacingRight=4;overflow=hidden;rotatable=0;points=[[0,0.5],[1,0.5]];portConstraint=eastwest;sketch=0;fontColor=#EEEEEE;" parent="40" vertex="1"><mxGeometry y="26" width="271" height="26" as="geometry"/></mxCell><mxCell id="44" value="- y: int" style="text;strokeColor=none;fillColor=none;align=left;verticalAlign=top;spacingLeft=4;spacingRight=4;overflow=hidden;rotatable=0;points=[[0,0.5],[1,0.5]];portConstraint=eastwest;sketch=0;fontColor=#EEEEEE;" parent="40" vertex="1"><mxGeometry y="52" width="271" height="26" as="geometry"/></mxCell><mxCell id="42" value="" style="line;strokeWidth=1;fillColor=none;align=left;verticalAlign=middle;spacingTop=-1;spacingLeft=3;spacingRight=3;rotatable=0;labelPosition=right;points=[];portConstraint=eastwest;sketch=0;fontColor=#EEEEEE;" parent="40" vertex="1"><mxGeometry y="78" width="271" height="8" as="geometry"/></mxCell><mxCell id="43" value="+ equals(IntVextor2D): boolean" style="text;strokeColor=none;fillColor=none;align=left;verticalAlign=top;spacingLeft=4;spacingRight=4;overflow=hidden;rotatable=0;points=[[0,0.5],[1,0.5]];portConstraint=eastwest;sketch=0;fontColor=#EEEEEE;" parent="40" vertex="1"><mxGeometry y="86" width="271" height="26" as="geometry"/></mxCell><mxCell id="45" value="+ hashCode(): int" style="text;strokeColor=none;fillColor=none;align=left;verticalAlign=top;spacingLeft=4;spacingRight=4;overflow=hidden;rotatable=0;points=[[0,0.5],[1,0.5]];portConstraint=eastwest;sketch=0;fontColor=#EEEEEE;" parent="40" vertex="1"><mxGeometry y="112" width="271" height="26" as="geometry"/></mxCell><mxCell id="67" value="+ add(IntVextor2D): void" style="text;strokeColor=none;fillColor=none;align=left;verticalAlign=top;spacingLeft=4;spacingRight=4;overflow=hidden;rotatable=0;points=[[0,0.5],[1,0.5]];portConstraint=eastwest;sketch=0;fontColor=#EEEEEE;" vertex="1" parent="40"><mxGeometry y="138" width="271" height="26" as="geometry"/></mxCell><mxCell id="66" value="+ turn(Sign sign): void" style="text;strokeColor=none;fillColor=none;align=left;verticalAlign=top;spacingLeft=4;spacingRight=4;overflow=hidden;rotatable=0;points=[[0,0.5],[1,0.5]];portConstraint=eastwest;sketch=0;fontColor=#EEEEEE;" vertex="1" parent="40"><mxGeometry y="164" width="271" height="26" as="geometry"/></mxCell><mxCell id="65" value="+ isValid(int x, int y, int width, int height): boolean " style="text;strokeColor=none;fillColor=none;align=left;verticalAlign=top;spacingLeft=4;spacingRight=4;overflow=hidden;rotatable=0;points=[[0,0.5],[1,0.5]];portConstraint=eastwest;sketch=0;fontColor=#EEEEEE;" vertex="1" parent="40"><mxGeometry y="190" width="271" height="26" as="geometry"/></mxCell><mxCell id="68" value="" style="endArrow=none;endSize=16;endFill=0;html=1;rounded=1;sketch=0;strokeColor=#0B4D6A;curved=0;exitX=0.632;exitY=1.038;exitDx=0;exitDy=0;exitPerimeter=0;entryX=0.431;entryY=0.059;entryDx=0;entryDy=0;entryPerimeter=0;" edge="1" parent="40" source="45" target="67"><mxGeometry width="160" relative="1" as="geometry"><mxPoint x="115.02399999999989" y="138.98800000000006" as="sourcePoint"/><mxPoint x="159.96000000000004" y="233.00600000000009" as="targetPoint"/></mxGeometry></mxCell><mxCell id="46" value="Delta" style="swimlane;fontStyle=1;align=center;verticalAlign=top;childLayout=stackLayout;horizontal=1;startSize=26;horizontalStack=0;resizeParent=1;resizeParentMax=0;resizeLast=0;collapsible=1;marginBottom=0;sketch=0;fontColor=#EEEEEE;strokeColor=#BAC8D3;fillColor=#09555B;" parent="1" vertex="1"><mxGeometry x="40" y="315" width="160" height="60" as="geometry"/></mxCell><mxCell id="48" value="" style="line;strokeWidth=1;fillColor=none;align=left;verticalAlign=middle;spacingTop=-1;spacingLeft=3;spacingRight=3;rotatable=0;labelPosition=right;points=[];portConstraint=eastwest;sketch=0;fontColor=#EEEEEE;" parent="46" vertex="1"><mxGeometry y="26" width="160" height="8" as="geometry"/></mxCell><mxCell id="69" value="+ equals(Delta): boolean" style="text;strokeColor=none;fillColor=none;align=left;verticalAlign=top;spacingLeft=4;spacingRight=4;overflow=hidden;rotatable=0;points=[[0,0.5],[1,0.5]];portConstraint=eastwest;sketch=0;fontColor=#EEEEEE;" vertex="1" parent="46"><mxGeometry y="34" width="160" height="26" as="geometry"/></mxCell><mxCell id="51" value="Extends" style="endArrow=block;endSize=16;endFill=0;html=1;rounded=1;sketch=0;strokeColor=#0B4D6A;curved=0;entryX=0.5;entryY=0;entryDx=0;entryDy=0;" parent="1" source="69" target="8" edge="1"><mxGeometry width="160" relative="1" as="geometry"><mxPoint x="141" y="386" as="sourcePoint"/><mxPoint x="325" y="387" as="targetPoint"/></mxGeometry></mxCell><mxCell id="52" value="Extends" style="endArrow=block;endSize=16;endFill=0;html=1;rounded=1;sketch=0;strokeColor=#0B4D6A;curved=0;entryX=0.456;entryY=0.014;entryDx=0;entryDy=0;entryPerimeter=0;" parent="1" source="65" target="46" edge="1"><mxGeometry width="160" relative="1" as="geometry"><mxPoint x="126.96000000000004" y="358.99" as="sourcePoint"/><mxPoint x="130" y="446" as="targetPoint"/></mxGeometry></mxCell><mxCell id="53" value="Extends" style="endArrow=block;endSize=16;endFill=0;html=1;rounded=1;sketch=0;strokeColor=#0B4D6A;curved=0;entryX=0.431;entryY=0.059;entryDx=0;entryDy=0;entryPerimeter=0;startArrow=none;" parent="1" source="65" target="35" edge="1"><mxGeometry width="160" relative="1" as="geometry"><mxPoint x="324" y="254" as="sourcePoint"/><mxPoint x="431" y="304" as="targetPoint"/></mxGeometry></mxCell><mxCell id="54" value="1" style="endArrow=open;html=1;endSize=12;startArrow=diamondThin;startSize=14;startFill=0;edgeStyle=orthogonalEdgeStyle;align=left;verticalAlign=bottom;rounded=1;sketch=0;strokeColor=#0B4D6A;curved=0;entryX=0;entryY=0.5;entryDx=0;entryDy=0;exitX=0.5;exitY=1;exitDx=0;exitDy=0;" parent="1" source="8" target="58" edge="1"><mxGeometry x="-0.42" y="14" relative="1" as="geometry"><mxPoint x="69" y="688" as="sourcePoint"/><mxPoint x="512" y="547" as="targetPoint"/><mxPoint as="offset"/></mxGeometry></mxCell><mxCell id="60" value="1" style="endArrow=open;html=1;endSize=12;startArrow=diamondThin;startSize=14;startFill=0;edgeStyle=orthogonalEdgeStyle;align=left;verticalAlign=bottom;rounded=1;sketch=0;strokeColor=#0B4D6A;curved=0;entryX=0;entryY=0.5;entryDx=0;entryDy=0;exitX=1;exitY=0.5;exitDx=0;exitDy=0;" parent="1" source="46" target="24" edge="1"><mxGeometry x="-0.42" y="14" relative="1" as="geometry"><mxPoint x="192.07999999999993" y="337.00199999999995" as="sourcePoint"/><mxPoint x="271" y="706" as="targetPoint"/><mxPoint as="offset"/></mxGeometry></mxCell><mxCell id="64" value="1" style="endArrow=open;html=1;endSize=12;startArrow=diamondThin;startSize=14;startFill=0;edgeStyle=orthogonalEdgeStyle;align=left;verticalAlign=bottom;rounded=1;sketch=0;strokeColor=#0B4D6A;curved=0;entryX=1;entryY=0.5;entryDx=0;entryDy=0;" parent="1" source="16" target="63" edge="1"><mxGeometry x="-0.8495" y="15" relative="1" as="geometry"><mxPoint x="669" y="572" as="sourcePoint"/><mxPoint x="663" y="650" as="targetPoint"/><mxPoint as="offset"/><Array as="points"><mxPoint x="597" y="612"/></Array></mxGeometry></mxCell></root></mxGraphModel></diagram></mxfile>